# xmcd
#
# Track frame offsets:
# 150
# 18431
# 35365
# 58099
# 78654
# 93961
# 106632
# 123126
# 143799
# 164867
#
# Disc length: 2496 seconds
#
# Revision: 1
# Processed by: cddbd v1.5.1PL2 Copyright (c) Steve Scherf et al.
# Submitted via: Easy CD Ripper v2.34
#
DISCID=7c09be0a
DTITLE=Wingnut Adams Band with Jeramy Norris - The Rhythm Clique
DYEAR=2006
DGENRE=Blues
TTITLE0=You Never Know - Wingnut Adams Band with Jeramy
TTITLE1=Nine Lives - Wingnut Adams Band with Jeramy
TTITLE2=I Been Criticized - Wingnut Adams Band with Jeramy
TTITLE3=Time - Wingnut Adams Band with Jeramy
TTITLE4=Duncan Donut Blues - Wingnut Adams Band with Jeramy
TTITLE5=Bring It On Home - Wingnut Adams Band with Jeramy
TTITLE6=Goin' Down To Austin - Wingnut Adams Band with Jeramy
TTITLE7=So Satisfied - Wingnut Adams Band with Jeramy
TTITLE8=Scene Of The Crime - Wingnut Adams Band with Jeramy
TTITLE9=Ain't Nobody - Wingnut Adams Band with Jeramy
EXTD=
EXTT0=
EXTT1=
EXTT2=
EXTT3=
EXTT4=
EXTT5=
EXTT6=
EXTT7=
EXTT8=
EXTT9=
PLAYORDER=
